<svg width="39" height="46" viewBox="0 0 39 46" fill="none" xmlns="http://www.w3.org/2000/svg">
    <path d="M19.5 44.3136C37.7499 39.8884 36.9956 24.8839 36.9956 24.8839V8.26252C36.9956 8.26252 25.6542 6.75008 19.5 2C13.4348 6.68045 2.32932 8.2161 2.01213 8.25865C2.00827 8.25865 2.0044 8.26252 2.0044 8.27026V24.8839C2.0044 24.8839 1.25011 39.8884 19.5 44.3136Z" stroke="#1B344B" stroke-width="3" stroke-miterlimit="10" stroke-linecap="round" stroke-linejoin="round"/>
    <path d="M17.422 24.2616L14.2695 32.8334H24.6825L21.53 24.2616C23.3867 23.4648 24.6825 21.6197 24.6825 19.4728C24.6825 16.5949 22.35 14.2625 19.4721 14.2625C16.5942 14.2625 14.2617 16.5949 14.2617 19.4728C14.2656 21.6235 15.5653 23.4648 17.422 24.2616Z" stroke="#1B344B" stroke-width="3" stroke-miterlimit="10" stroke-linecap="round" stroke-linejoin="round"/>
</svg>
