<svg width="48" height="48" viewBox="0 0 48 48" fill="none" xmlns="http://www.w3.org/2000/svg">
<path fill-rule="evenodd" clip-rule="evenodd" d="M36.375 14.0949V13C36.375 6.00847 31.0113 0 24 0C16.9887 0 11.625 6.00847 11.625 13V14.0949C8.31479 14.6622 6 17.6918 6 21V41C6 44.6715 8.8512 48 12.75 48H35.25C39.1488 48 42 44.6715 42 41V21C42 17.6918 39.6852 14.6622 36.375 14.0949ZM21.375 14H26.625V13C26.625 11.1515 25.2762 10 24 10C22.7238 10 21.375 11.1515 21.375 13V14ZM34.375 17H35.25C37.3125 17 39 18.8 39 21V41C39 43.2 37.3125 45 35.25 45H12.75C10.6875 45 9 43.2 9 41V21C9 18.8 10.6875 17 12.75 17H13.625C14.1773 17 14.625 16.5523 14.625 16V13C14.625 7.48 18.825 3 24 3C29.175 3 33.375 7.48 33.375 13V16C33.375 16.5523 33.8227 17 34.375 17ZM18.375 16C18.375 16.5523 18.8227 17 19.375 17H28.625C29.1773 17 29.625 16.5523 29.625 16V13C29.625 9.68 27.1125 7 24 7C20.8875 7 18.375 9.68 18.375 13V16Z" fill="#1B344B"/>
<path d="M21.8545 31.6106C22.3087 31.92 22.5671 32.4891 22.366 33.0006L20.5439 37.634C20.2859 38.2901 20.7695 39 21.4745 39H27.5322C28.2372 39 28.7208 38.2901 28.4628 37.634L26.6407 33.0006C26.4396 32.4891 26.698 31.92 27.1519 31.6102C28.2733 30.8449 29 29.6058 29 28.2085C29 25.884 26.9855 24 24.5 24C22.0145 24 20 25.884 20 28.2085C20.0027 29.6084 20.7322 30.846 21.8545 31.6106Z" fill="#1B344B"/>
</svg>
