<svg width="37" height="48" viewBox="0 0 37 48" fill="none" xmlns="http://www.w3.org/2000/svg">
<path d="M29.6618 15.5H29.2574V13C29.2574 6.72165 24.3883 1.5 18.2353 1.5C12.0823 1.5 7.21323 6.72165 7.21323 13V15.5H6.80882C3.81717 15.5 1.5 18.0416 1.5 21V41C1.5 43.9584 3.81717 46.5 6.80882 46.5H29.6618C32.6534 46.5 34.9706 43.9584 34.9706 41V21C34.9706 18.0416 32.6534 15.5 29.6618 15.5ZM22.4485 15.5H14.0221V13C14.0221 10.4384 15.9708 8.5 18.2353 8.5C20.4998 8.5 22.4485 10.4384 22.4485 13V15.5Z" stroke="#1B344B" stroke-width="3"/>
<path d="M15.7418 31.643C16.1988 31.9515 16.4581 32.5231 16.2551 33.0358L14.4118 37.6907C14.1519 38.3471 14.6356 39.0588 15.3416 39.0588H21.4898C22.1958 39.0588 22.6795 38.347 22.4195 37.6907L20.5763 33.0358C20.3733 32.5231 20.6326 31.9515 21.0894 31.6426C22.225 30.8745 22.9613 29.6294 22.9613 28.225C22.9613 25.8914 20.9249 24 18.4123 24C15.8997 24 13.8633 25.8914 13.8633 28.225C13.866 29.6319 14.6051 30.8756 15.7418 31.643Z" fill="#1B344B"/>
</svg>
